<svg width="84" height="80" viewBox="0 0 84 80" fill="none" xmlns="http://www.w3.org/2000/svg">
<path d="M5.27549 18.7896C-2.07807 29.3551 -1.16516 43.1033 4.4547 54.3304L4.86509 55.1261C4.95304 55.2936 5.03679 55.4695 5.12892 55.6328C5.17917 55.7333 5.2378 55.8296 5.29224 55.9217C5.55643 56.4089 5.8329 56.8892 6.1214 57.3623L6.4271 57.8648C6.71173 58.3317 7.00633 58.7925 7.3107 59.2468C7.61067 59.6979 7.91922 60.1433 8.23617 60.5826L8.38693 60.7878C8.65075 61.1563 8.92714 61.5207 9.20771 61.8808L9.5176 62.2745L10.2798 63.2083L10.5687 63.5517C10.9121 63.9579 11.2681 64.3641 11.624 64.7619L11.6449 64.7829C11.6617 64.7996 11.6743 64.808 11.6868 64.8289C12.0344 65.21 12.3987 65.5869 12.7589 65.9638L13.1064 66.3114L13.9649 67.1531L14.3167 67.4881C14.7019 67.8524 15.0956 68.2084 15.4934 68.5602L15.5102 68.5769L15.7154 68.7486C16.0629 69.0543 16.4231 69.3558 16.7832 69.6489L17.2229 70.0007C17.9924 70.6177 18.7815 71.2098 19.589 71.7763C19.7104 71.8642 19.8277 71.9522 19.9533 72.0359L20.0538 72.1071C20.3721 72.3291 20.6987 72.5384 21.0212 72.7478C21.1593 72.84 21.2975 72.9363 21.4441 73.0284C22.6471 73.7961 23.8852 74.5074 25.1544 75.1599C25.4266 75.3023 25.6946 75.4447 25.971 75.5829L26.1594 75.675L26.4944 75.8383C26.9216 76.0393 27.3529 76.2445 27.7842 76.4372L28.0606 76.5586C28.559 76.7764 29.0615 76.9858 29.5682 77.1826L29.9367 77.3291C30.467 77.5352 31.0003 77.7334 31.5364 77.9238C32.0599 78.1081 32.5917 78.2798 33.1277 78.4431L33.513 78.5603C34.049 78.7236 34.585 78.9163 35.1462 79.021C70.7079 85.5035 81.0347 57.6554 81.0347 57.6554C72.3579 68.9538 56.964 71.9354 42.3741 68.6188C41.8213 68.4931 41.2811 68.3215 40.7409 68.1623L40.3347 68.0409C39.2677 67.7111 38.2131 67.3423 37.173 66.9353L36.7836 66.7846C36.281 66.5878 35.7827 66.3784 35.2927 66.1648L34.9954 66.035C34.5726 65.8454 34.1524 65.65 33.7349 65.4487L33.3706 65.2728C33.044 65.1137 32.7215 64.942 32.3991 64.7787C32.1855 64.6656 31.9635 64.5567 31.75 64.4353C31.3578 64.225 30.9696 64.0072 30.5858 63.782L30.1922 63.5643C29.6797 63.2625 29.1729 62.9511 28.672 62.6304L28.2616 62.3582C27.8966 62.1235 27.535 61.8833 27.177 61.6379L26.8295 61.3909C26.4861 61.148 26.1427 60.9051 25.8077 60.6538C25.3436 60.3059 24.8857 59.9499 24.4341 59.586L24.0195 59.2551C23.6343 58.9369 23.249 58.6186 22.8721 58.2878C22.4197 57.8938 21.9743 57.4917 21.5362 57.0817C21.419 56.9729 21.3059 56.8682 21.197 56.7551C20.9016 56.477 20.6112 56.1936 20.326 55.905L19.9868 55.5658C19.6258 55.1964 19.2712 54.8209 18.9231 54.4393L18.8729 54.3891C18.506 53.9861 18.1458 53.577 17.7925 53.1621L17.5119 52.8229C17.1488 52.3929 16.7942 51.9559 16.4482 51.5121C16.1421 51.1174 15.8419 50.7182 15.5479 50.3144C7.44889 39.2674 4.54264 24.0284 11.0126 11.5156" fill="#3455CA"/>
<path d="M28.0879 9.89248C22.7695 17.5434 23.0627 27.7864 27.2085 35.877C27.9036 37.2338 28.6867 38.5529 29.5578 39.805C30.3576 40.9483 31.237 42.3051 32.2965 43.2222C32.6818 43.6451 33.0796 44.0555 33.4858 44.4576L33.8041 44.7674C34.1977 45.1527 34.5997 45.5296 35.0227 45.9023L35.0687 45.9442L35.0813 45.9526C35.5461 46.3588 36.0193 46.7482 36.5051 47.1293L36.8317 47.3806C37.3323 47.7686 37.8434 48.1428 38.3644 48.5029C38.5864 48.6578 38.8167 48.8044 39.0387 48.9509C39.1475 49.0221 39.2522 49.0975 39.3653 49.1645C39.779 49.4317 40.1993 49.6886 40.6258 49.935C40.944 50.1193 41.2749 50.2994 41.6015 50.4794C41.7104 50.5423 41.8318 50.6009 41.9449 50.6595C42.1752 50.7768 42.3972 50.8982 42.6275 51.0071C43.1319 51.2564 43.6416 51.4952 44.156 51.7232L44.4659 51.853C44.8553 52.0163 45.2448 52.1754 45.6426 52.3262L46.1326 52.5105C46.4927 52.6445 46.8487 52.7617 47.2046 52.8832L47.6946 53.0381C48.2013 53.1972 48.7122 53.3941 49.244 53.4862C76.6984 58.034 83.0302 36.8988 83.0302 36.8988C77.3182 45.1234 66.2544 49.0514 54.4493 45.9861C53.3968 45.7138 52.3583 45.3895 51.3379 45.0145L50.8437 44.8344C50.346 44.6444 49.8531 44.4419 49.3655 44.2272C48.8805 44.0157 48.4002 43.7937 47.9249 43.5614C47.6862 43.4441 47.4517 43.3185 47.213 43.1971L46.7984 42.9835C46.0402 42.5713 45.2958 42.1341 44.5664 41.6728L44.2314 41.4508C43.362 40.8848 42.5207 40.2768 41.7104 39.6292C36.5428 35.5504 32.4431 29.9724 30.4958 23.6532C28.4522 17.0953 28.8961 9.73753 32.4305 3.76172" fill="#3455CA"/>
<path d="M47.2893 3.23707C44.1528 7.85189 43.8429 13.5764 46.0163 18.6729C48.3111 24.0833 53.0139 28.3213 58.4997 30.3355C58.8228 30.4563 59.1496 30.5666 59.4797 30.6664C59.8021 30.7669 60.1162 30.8883 60.4554 30.9469C75.6148 33.8741 79.7229 23.1704 80.8159 21.5917C77.2145 26.7802 71.1591 28.0239 63.7385 26.219C62.3861 25.8615 61.0697 25.3792 59.8063 24.7785C58.4858 24.1413 57.2306 23.3769 56.0583 22.4962C49.4209 17.4542 45.2834 7.83514 49.6261 0" fill="#3455CA"/>
</svg>
