<svg width="57" height="85" viewBox="0 0 57 85" fill="none" xmlns="http://www.w3.org/2000/svg">
<path d="M7.21449 41.8747C14.0376 44.273 21.2356 45.4275 28.4665 45.2834C35.6975 45.4266 42.8956 44.2711 49.7185 41.8719C55.0444 39.7947 56.933 37.486 56.933 36.1574V26C55.071 27.2469 53.0734 28.2783 50.9786 29.0744C43.7596 31.6593 36.1333 32.9196 28.4665 32.7945C20.8004 32.9172 13.1748 31.659 5.95445 29.0801C3.85859 28.284 1.86076 27.2506 0 26V36.1431C0 37.4975 1.89434 39.7947 7.21449 41.8747ZM7.21449 61.0324C9.62486 61.9516 12.1104 62.66 14.6433 63.1496C19.1978 64.0307 23.8276 64.4642 28.4665 64.4439C33.1053 64.4651 37.7351 64.0326 42.2897 63.1525C44.8226 62.6628 47.3081 61.9545 49.7185 61.0353C55.0444 58.9581 56.933 56.6494 56.933 55.3208V45.6348C55.3939 46.561 53.7762 47.3498 52.0986 47.992C44.5149 50.6771 36.5102 51.9769 28.4665 51.8293C20.422 51.9723 12.4172 50.6677 4.83442 47.9778C3.15758 47.3338 1.54 46.5451 0 45.6205V55.3151C0 56.6466 1.89434 58.9466 7.21449 61.0324ZM28.4665 84.0016C44.1812 84.0016 56.933 79.0186 56.933 72.8756V64.7697C55.5328 65.6137 54.066 66.3418 52.5472 66.9469L52.0986 67.1269C44.5164 69.8199 36.5116 71.1274 28.4665 70.987C20.4211 71.1315 12.4157 69.8239 4.83442 67.1269C4.68013 67.0697 4.53155 67.004 4.38584 66.9469C2.86701 66.3418 1.40018 65.6137 0 64.7697V72.8756C0 79.0186 12.7518 84.0016 28.4665 84.0016Z" fill="#FFDA44"/>
<path d="M28.4665 22.2521C44.1881 22.2521 56.933 17.2708 56.933 11.126C56.933 4.98129 44.1881 0 28.4665 0C12.7449 0 0 4.98129 0 11.126C0 17.2708 12.7449 22.2521 28.4665 22.2521Z" fill="#FFDA44"/>
</svg>
