<svg width="101" height="80" viewBox="0 0 101 80" fill="none" xmlns="http://www.w3.org/2000/svg">
<path d="M20.8587 0C15.1286 0 10.8883 5.0154 11.0782 10.4545C11.2606 15.6797 11.0237 22.4479 9.31997 27.967C7.61116 33.5021 4.72079 37.0084 0 37.4588V42.5412C4.72079 42.9916 7.61116 46.4979 9.31997 52.0334C11.0237 57.5525 11.2606 64.3199 11.0782 69.5455C10.8883 74.9838 15.1286 80 20.8595 80H79.5744C85.3049 80 89.544 74.9846 89.3541 69.5455C89.1721 64.3203 89.4086 57.5525 91.1123 52.0334C92.8223 46.4982 95.7048 42.9912 100.426 42.5412V37.4588C95.7048 37.0084 92.8223 33.5021 91.1127 27.967C89.4086 22.4487 89.1721 15.6801 89.3541 10.4545C89.544 5.01618 85.3049 0 79.5744 0H20.8579H20.8587ZM68.0854 49.245C68.0854 56.7346 62.4993 61.2765 53.2287 61.2765H37.447C36.9956 61.2764 36.5628 61.097 36.2437 60.7778C35.9245 60.4586 35.7452 60.0257 35.7452 59.5744V20.4256C35.7452 20.2021 35.7892 19.9807 35.8747 19.7741C35.9602 19.5676 36.0856 19.3799 36.2437 19.2218C36.4017 19.0637 36.5894 18.9383 36.7959 18.8527C37.0025 18.7671 37.2238 18.7231 37.4474 18.7231H53.1385C60.8685 18.7231 65.9416 22.9108 65.9416 29.3396C65.9416 33.8521 62.5287 37.8918 58.181 38.5991V38.8349C64.1002 39.4841 68.0854 43.5832 68.0854 49.245ZM51.5074 24.119H42.5095V36.8291H50.0885C55.9469 36.8291 59.1778 34.4699 59.1778 30.2528C59.1778 26.3013 56.3992 24.119 51.5074 24.119ZM42.5095 41.8724V55.879H51.8388C57.9381 55.879 61.1698 53.4315 61.1698 48.8316C61.1698 44.2308 57.8483 41.8716 51.4466 41.8716H42.5095V41.8724Z" fill="#7E13F8"/>
</svg>
