<svg width="57" height="81" viewBox="0 0 57 81" fill="none" xmlns="http://www.w3.org/2000/svg">
<path d="M7.21449 37.8747C14.0376 40.273 21.2356 41.4275 28.4665 41.2834C35.6975 41.4266 42.8956 40.2711 49.7185 37.8719C55.0444 35.7947 56.933 33.486 56.933 32.1574V22C55.071 23.2469 53.0734 24.2783 50.9786 25.0744C43.7596 27.6593 36.1333 28.9196 28.4665 28.7945C20.8004 28.9172 13.1748 27.659 5.95445 25.0801C3.85859 24.284 1.86076 23.2506 0 22V32.1431C0 33.4975 1.89434 35.7947 7.21449 37.8747ZM7.21449 57.0324C9.62486 57.9516 12.1104 58.66 14.6433 59.1496C19.1978 60.0307 23.8276 60.4642 28.4665 60.4439C33.1053 60.4651 37.7351 60.0326 42.2897 59.1525C44.8226 58.6628 47.3081 57.9545 49.7185 57.0353C55.0444 54.9581 56.933 52.6494 56.933 51.3208V41.6348C55.3939 42.561 53.7762 43.3498 52.0986 43.992C44.5149 46.6771 36.5102 47.9769 28.4665 47.8293C20.422 47.9723 12.4172 46.6677 4.83442 43.9778C3.15758 43.3338 1.54 42.5451 0 41.6205V51.3151C0 52.6466 1.89434 54.9466 7.21449 57.0324ZM28.4665 80.0016C44.1812 80.0016 56.933 75.0186 56.933 68.8756V60.7697C55.5328 61.6137 54.066 62.3418 52.5472 62.9469L52.0986 63.1269C44.5164 65.8199 36.5116 67.1274 28.4665 66.987C20.4211 67.1315 12.4157 65.8239 4.83442 63.1269C4.68013 63.0697 4.53155 63.004 4.38584 62.9469C2.86701 62.3418 1.40018 61.6137 0 60.7697V68.8756C0 75.0186 12.7518 80.0016 28.4665 80.0016Z" fill="#FFDA44"/>
<path d="M28.4665 22.2521C44.1881 22.2521 56.933 17.2708 56.933 11.126C56.933 4.98129 44.1881 0 28.4665 0C12.7449 0 0 4.98129 0 11.126C0 17.2708 12.7449 22.2521 28.4665 22.2521Z" fill="#FFDA44"/>
</svg>
